<svg id="antena" xmlns="http://www.w3.org/2000/svg" width="64" height="64" fill="none">
  <path fill="#2E2F42" d="M62 44 45 27l2-9h1a4 4 0 1 0-4-3l-10 2L18 0h-2l-3 3v2l2 1a30 30 0 0 0 5 36v13H7c-2 0-5 3-5 6v2l1 1h49l1-1v-2c0-3-2-6-5-6H35v-5a30 30 0 0 0 20-3l2 2h2l3-3v-2ZM47 12a2 2 0 1 1 1 4 2 2 0 0 1-1-4Zm-3 7-1 6-2-2 3-4Zm-1-1-4 3-3-2 7-1Zm5 40c2 0 3 1 3 3v1H4v-1c0-2 2-3 3-3h41Zm-15-5v2H22v-2h11Zm-11-2v-8c0-2 3-5 6-5s5 3 5 5v8H22Zm13-3v-5c0-4-3-7-7-7-3 0-5 2-7 4-8-9-10-21-4-32l37 37c-6 3-13 4-19 3Zm23-2-2-1L17 6l-1-2 1-1 16 16 26 26-1 1Z"/>
  <path fill="#4D5AE5" d="M28 41a3 3 0 0 0 0 6 3 3 0 0 0 0-6Zm0 3a1 1 0 1 1 0-1 1 1 0 0 1 0 1Z"/>
</svg>
<svg id="astonaut" xmlns="http://www.w3.org/2000/svg" width="64" height="64" fill="none">
  <path fill="#4D5AE5" d="m64 9-1-1h-4l-1-4h-2l-2 4h-4a1 1 0 0 0 0 2l2 3v4a1 1 0 0 0 1 1l4-2 3 2a1 1 0 0 0 2-1l-1-4 3-3V9Zm-5 3v3l-2-1a1 1 0 0 0-1 0l-2 1v-3l-1-2h2l1-1 1-2 1 2v1h3l-2 2ZM52 41h-2v2h2v-2ZM52 45h-2v2h2v-2ZM54 43h-2v2h2v-2ZM50 43h-2v2h2v-2ZM45 53h-2v2h2v-2ZM45 57h-2v2h2v-2ZM47 55h-2v2h2v-2ZM43 55h-2v2h2v-2ZM32 49h-2v2h2v-2ZM32 53h-2v2h2v-2ZM34 51h-2v2h2v-2ZM30 51h-2v2h2v-2ZM12 12h-2v2h2v-2ZM12 17h-2v2h2v-2ZM14 14h-2v3h2v-3ZM10 14H7v3h3v-3Z"/>
  <path fill="#2E2F42" d="m49 28-2-1-3 1-2 2-4 2-3-1a14 14 0 0 0-5-26 14 14 0 0 0-12 21h-6l-6 3-4 2a4 4 0 0 0 3 6l3-1 5-2h2L4 44l-2 3a3 3 0 0 0 0 5 3 3 0 0 0 4 0l3-3 4-2 1 1-3 4-3 3a3 3 0 0 0 0 4 3 3 0 0 0 5 0l3-2 4-5 2-2 10-11 7 1a1 1 0 0 0 1 0l6-4v-1l3-2c1-1 2-3 0-5ZM4 36H3a1 1 0 0 1 0-3l2-1 1 2-2 2Zm7-4-3 1v-1l-1-1 4-2v3Zm30-13-1 5-8-4-2-3 3-10c5 2 8 6 8 12Zm-23 0A12 12 0 0 1 31 7l-3 10c-2 0-4 1-4 3a4 4 0 0 0 7 2l8 4a12 12 0 0 1-21-7Zm12 1-2 2-1-2 1-1 2 1ZM5 50H3a1 1 0 0 1 0-1l2-2 2 1-2 2Zm6 8h-1a1 1 0 0 1 0-2l2-2v1l1 1-2 2Zm7-7-3 3h-1l-1-1 4-4v-1l-4-4h-1l-4 3-1-2 4-5 9 9-2 2Zm14-14a1 1 0 0 0-1 0l-9 10-9-8 6-6a1 1 0 0 0-1-2h-5v-3h7a14 14 0 0 0 12 4l5 2 1 2v2l-6-1Zm8 0-1-3 3-2 1 1 1 1-4 3Zm8-6-2 2-2-2 2-2h1a1 1 0 0 1 1 2Z"/>
  <path fill="#2E2F42" d="m27 37-4-4h-2l-4 4a1 1 0 0 0 0 2l4 4a1 1 0 0 0 2 0l4-4a1 1 0 0 0 0-2Zm-5 4-3-3 3-3 3 3-3 3ZM34 10v2s3 1 3 5h2c0-5-3-6-5-7ZM39 19h-2v2h2v-2Z"/>
</svg>
<svg id="clock" xmlns="http://www.w3.org/2000/svg" width="64" height="64" fill="none">
  <g clip-path="url(#a)">
    <path fill="#2E2F42" d="M63 31a31 31 0 1 0-40 29h1v-1l8-25a4 4 0 1 0-2-7L20 17a1 1 0 0 0-2 2l11 10c-1 2-1 3 1 5l-8 23a28 28 0 1 1 21-1v-4a1 1 0 0 0-3 0l-7 7a1 1 0 0 0 0 2l10 3a1 1 0 0 0 2-2l-1-3c11-5 19-16 19-28Zm-31-2a1 1 0 1 1 0 3 1 1 0 0 1 0-3Zm4 30 5-4 1 6-6-2Z"/>
    <path fill="#4D5AE5" d="M31 6v3a1 1 0 1 0 2 0V6a1 1 0 0 0-2 0ZM8 29a1 1 0 0 0 0 3h2a1 1 0 1 0 0-3H8ZM56 32a1 1 0 1 0 0-3h-2a1 1 0 0 0 0 3h2Z"/>
  </g>
  <defs>
    <clipPath id="a">
      <path fill="#fff" d="M0 0h64v64H0z"/>
    </clipPath>
  </defs>
</svg>
<svg id="diaram" xmlns="http://www.w3.org/2000/svg" width="64" height="64" fill="none">
  <g clip-path="url(#a)">
    <path fill="#4D5AE5" d="M30 30h2v10h-2V30ZM38 34h3v6h-3v-6ZM21 37h2v3h-2v-3ZM15 36h2v4h-2v-4Z"/>
    <path fill="#2E2F42" d="M3 57h51c2 0 4-2 4-4v-4c0-2-2-3-4-3h-1V19l6-5a3 3 0 1 0-1-2l-5 4v-2c0-2-1-3-3-3H7c-1 0-3 1-3 3v32H3c-2 0-3 1-3 3v4c0 2 1 4 3 4Zm58-47a1 1 0 1 1 0 2 1 1 0 0 1 0-2ZM6 14l1-1h43l1 1v4l-2 2v-4l-1-1H10l-1 1v27l1 1h38l1-1V23l2-2v25H6V14Zm10 14a3 3 0 1 0 2 5l4 2h1l8-9 8 6h1l7-7v17H11V17h36v5l-8 8-7-6h-2l-8 9-3-2c0-2-1-3-3-3Zm1 3a1 1 0 1 1-2 0 1 1 0 0 1 2 0Zm6 17h11v1l-1 1h-8l-2-1v-1ZM2 49l1-1h18v1c0 2 2 3 4 3h8c2 0 3-1 3-3v-1h18l1 1v4l-1 1H3l-1-1v-4Z"/>
  </g>
  <defs>
    <clipPath id="a">
      <path fill="#fff" d="M0 0h64v64H0z"/>
    </clipPath>
  </defs>
</svg>
<svg id="Ellipse" xmlns="http://www.w3.org/2000/svg" width="40" height="40" fill="none">
  <path fill="#4D5AE5" d="M40 20A20 20 0 0 1 6 34 20 20 0 0 1 20 0a20 20 0 0 1 20 20Z"/>
</svg>
<svg id="facebook" xmlns="http://www.w3.org/2000/svg" width="16" height="16" fill="none">
  <g clip-path="url(#a)">
    <path fill="#F4F4FD" d="M11 3h1V0h-2C8 0 6 1 6 4v2H4v3h2v7h3V9h3V6H9V4l2-1Z"/>
  </g>
  <defs>
    <clipPath id="a">
      <path fill="#fff" d="M0 0h16v16H0z"/>
    </clipPath>
  </defs>
</svg>
<svg id="instagram" xmlns="http://www.w3.org/2000/svg" width="16" height="16" fill="none">
  <g fill="#F4F4FD" clip-path="url(#a)">
    <path d="M16 5V3l-1-2-2-1h-2a55 55 0 0 0-8 0L1 1 0 3v2a55 55 0 0 0 0 8l1 2 2 1h2a59 59 0 0 0 8 0l3-3v-2a59 59 0 0 0 0-6Zm-1 6-1 2-1 1-2 1a56 56 0 0 1-8-1H2v-3a56 56 0 0 1 0-8V2h3a56 56 0 0 1 8 0h1v1l1 2a56 56 0 0 1 0 6Z"/>
    <path d="M8 4a4 4 0 1 0 0 8 4 4 0 0 0 0-8Zm0 7a3 3 0 1 1 0-6 3 3 0 0 1 0 6ZM13 4a1 1 0 1 1-2 0 1 1 0 0 1 2 0Z"/>
  </g>
  <defs>
    <clipPath id="a">
      <path fill="#fff" d="M0 0h16v16H0z"/>
    </clipPath>
  </defs>
</svg>
<svg id="linkedin" xmlns="http://www.w3.org/2000/svg" width="16" height="16" fill="none">
  <g fill="#F4F4FD" clip-path="url(#a)">
    <path d="M16 16v-6c0-3-1-5-4-5-2 0-3 1-3 2V5H6v11h3v-5c0-2 0-3 2-3s2 2 2 3v5h3ZM0 5h4v11H0V5ZM2 0 0 2l2 2 2-2-2-2Z"/>
  </g>
  <defs>
    <clipPath id="a">
      <path fill="#fff" d="M0 0h16v16H0z"/>
    </clipPath>
  </defs>
</svg>
<svg id="twitter" xmlns="http://www.w3.org/2000/svg" width="16" height="16" fill="none">
  <g clip-path="url(#a)">
    <path fill="#F4F4FD" d="m16 3-2 1 2-2-3 1a3 3 0 0 0-5 3L1 2a3 3 0 0 0 1 4H1c0 2 1 3 2 3a3 3 0 0 1-1 0c0 2 1 3 3 3a7 7 0 0 1-5 1l5 1a9 9 0 0 0 9-9l2-2Z"/>
  </g>
  <defs>
    <clipPath id="a">
      <path fill="#fff" d="M0 0h16v16H0z"/>
    </clipPath>
  </defs>
</svg>